<svg width="200" height="200" viewBox="0 0 200 200" fill="none" xmlns="http://www.w3.org/2000/svg">
<path d="M80 39C102.686 45.1707 116.794 47.1301 143 49.5L161.5 104C143.41 143.32 136.803 153.183 128 160.5C96.5 157.5 43.5 146 38.5 141.5C38.5 129.5 41.2241 120.087 53.5 85C53.5 85 60.6041 69.7875 66 60.5C71.0333 51.8366 80 39 80 39Z" fill="#FCFCFC"/>
<path d="M143 49.5C116.794 47.1301 102.686 45.1707 80 39C80 39 71.0333 51.8366 66 60.5C60.6041 69.7875 53.5 85 53.5 85M143 49.5C134.643 70.22 129.157 81.2674 118 100M143 49.5L161.5 104C143.41 143.32 136.803 153.183 128 160.5M118 100L128 160.5M118 100C86.9611 100.018 72.9553 96.6167 53.5 85M128 160.5C96.5 157.5 43.5 146 38.5 141.5C38.5 129.5 41.2241 120.087 53.5 85" stroke="black" stroke-width="2" stroke-linejoin="round"/>
<path d="M113.652 59.3251L104.116 55.7604L98.622 63.9661" stroke="black" stroke-width="2"/>
<ellipse cx="116.989" cy="73.4733" rx="5.20833" ry="4.10124" transform="rotate(10.5 116.989 73.4733)" stroke="black" stroke-width="2"/>
<ellipse cx="78.0681" cy="66.2598" rx="5.20833" ry="4.10124" transform="rotate(10.5 78.0681 66.2598)" stroke="black" stroke-width="2"/>
<ellipse cx="96.5255" cy="74.8013" rx="22.2222" ry="11.1367" transform="rotate(10.5 96.5255 74.8013)" fill="white" stroke="black" stroke-width="2"/>
<ellipse cx="104.511" cy="74.1109" rx="3.47222" ry="2.66747" transform="rotate(10.5 104.511 74.1109)" fill="#FF4400"/>
<ellipse cx="89.4888" cy="71.3268" rx="3.47222" ry="2.66747" transform="rotate(10.5 89.4888 71.3268)" fill="#FF4400"/>
<path d="M88.8992 77.7959C88.5248 77.39 87.8922 77.3644 87.4862 77.7388C87.0802 78.1132 87.0546 78.7459 87.429 79.1519L88.8992 77.7959ZM103.772 82.1056C104.236 81.8057 104.368 81.1866 104.068 80.7228C103.768 80.2591 103.149 80.1264 102.686 80.4263L103.772 82.1056ZM87.429 79.1519C88.2908 80.0863 89.5845 80.8232 90.9881 81.3868C92.4095 81.9576 94.0296 82.3846 95.6271 82.6543C97.2238 82.9239 98.829 83.0415 100.224 82.9775C101.574 82.9155 102.887 82.6777 103.772 82.1056L102.686 80.4263C102.266 80.6977 101.403 80.9212 100.132 80.9796C98.9055 81.0359 97.445 80.9329 95.96 80.6822C94.4757 80.4316 92.9978 80.0386 91.7333 79.5309C90.451 79.0159 89.4709 78.4158 88.8992 77.7959L87.429 79.1519Z" fill="black"/>
<ellipse cx="117.17" cy="60.5867" rx="3.73264" ry="2.86753" transform="rotate(10.5 117.17 60.5867)" stroke="black" stroke-width="2"/>
</svg>
